<svg width="168" height="35" viewBox="0 0 152 31" xmlns="http://www.w3.org/2000/svg" xmlns:xlink="http://www.w3.org/1999/xlink"><title>Page 1</title><defs><path id="a" d="M30.582 30.784H0V.202h30.582v30.582z"/></defs><g fill="none" fill-rule="evenodd"><path d="M52.417 26.251l-.09-2.449c-.048-1.343-.152-4.47-.152-4.47-.06-1.929-.456-3.368-2.375-3.888v-.092c1.614-.643 2.74-2.45 2.74-4.898 0-3.859-1.827-5.634-5.36-5.634h-5.42v21.431h3.471v-8.817h1.675c1.37 0 1.858.827 1.888 2.265l.123 4.41a94.55 94.55 0 0 1 .028 2.142h3.472zm-3.44-14.083c-.03 1.255-.456 2.572-2.101 2.572H45.23V7.943h1.675c1.554 0 2.132 1.378 2.102 2.541l-.03 1.684zm102.37 14.083v-3.184h-5.573v-6.368h4.538v-3.184h-4.538V8.004h5.574V4.82h-9.046v21.431h9.046zm-11.063 0v-3.184h-5.574V4.82h-3.472v21.431h9.046zm-15.882 0c2.529 0 4.721-1.837 4.721-6.092 0-2.511-1.248-4.256-2.924-4.838V15.2c1.737-.735 2.803-2.51 2.803-4.868 0-3.98-1.95-5.511-4.904-5.511h-5.878v21.431h6.182zm.975-14.573c-.03 1.53-1.036 2.235-1.95 2.235h-1.766v-5.97h1.706c1.462 0 2.07.704 2.04 2.418l-.03 1.317zm.183 8.878c0 1.715-.7 2.603-2.224 2.603h-1.675v-6.43h1.584c1.462 0 2.315 1.042 2.315 2.45v1.377zm-14.188 5.695c2.528 0 4.72-1.837 4.72-6.092 0-2.511-1.248-4.256-2.923-4.838V15.2c1.736-.735 2.802-2.51 2.802-4.868 0-3.98-1.95-5.511-4.904-5.511h-5.878v21.431h6.183zm.975-14.573c-.031 1.53-1.036 2.235-1.95 2.235h-1.766v-5.97h1.705c1.462 0 2.071.704 2.04 2.418l-.03 1.317zm.182 8.878c0 1.715-.7 2.603-2.223 2.603h-1.675v-6.43h1.583c1.462 0 2.315 1.042 2.315 2.45v1.377zM97.453 26.65c3.685 0 5.268-2.419 5.268-5.756V4.82h-3.289v15.981c0 1.348-.335 2.695-1.888 2.695-1.645 0-1.95-1.562-1.95-2.633V4.82h-3.472v16.318c0 3.705 1.95 5.51 5.33 5.51zm-11.94-.398c2.528 0 4.721-1.837 4.721-6.092 0-2.511-1.249-4.256-2.924-4.838V15.2c1.736-.735 2.802-2.51 2.802-4.868 0-3.98-1.95-5.511-4.903-5.511H79.33v21.431h6.183zm.975-14.573c-.03 1.53-1.036 2.235-1.95 2.235h-1.766v-5.97h1.705c1.462 0 2.072.704 2.041 2.418l-.03 1.317zm.182 8.878c0 1.715-.7 2.603-2.223 2.603h-1.675v-6.43h1.584c1.462 0 2.314 1.042 2.314 2.45v1.377zm-14.802 5.695c3.167 0 4.934-1.653 4.934-5.143V9.84c0-3.399-1.797-5.021-5.026-5.021h-5.695v21.431h5.787zm1.431-5.296c0 1.347-.426 2.142-2.132 2.142h-1.614V7.973h1.645c1.705 0 2.132 1.01 2.132 2.143l-.03 10.839zM54.811 26.25V4.82h9.046v3.184h-5.574v5.51h4.538V16.7h-4.538v6.368h5.574v3.184h-9.046z" fill="#333"/><g transform="translate(0 .044)"><mask id="b" fill="#fff"><use xlink:href="#a"/></mask><path d="M21.194 21.003h-4.076a.409.409 0 0 1-.408-.41v-10.23c0-.226.183-.409.408-.409h3.779c2.836 0 3.431 1.67 3.431 3.07 0 .81-.215 1.453-.642 1.925 1.04.429 1.6 1.396 1.6 2.795 0 2.041-1.53 3.259-4.092 3.259m-5.918 0H6.81a.408.408 0 0 1-.407-.41v-10.23c0-.226.182-.409.407-.409h3.955c2.47 0 3.944 1.33 3.944 3.558 0 1.482-.745 2.646-1.946 3.119l2.817 3.691a.41.41 0 0 1-.305.68m.015-20.8C6.846.202 0 7.048 0 15.492c0 8.446 6.846 15.292 15.291 15.292s15.29-6.846 15.29-15.291S23.737.203 15.292.203" fill="#E41321" mask="url(#b)"/></g></g></svg>
